{"asset":{"version":"2.0","generator":"jtwi.me crt-setup generator"},"scene":0,"scenes":[{"nodes":[0]}],"nodes":[{"mesh":0,"name":"CrtSetup"}],"meshes":[{"name":"CrtSetup","primitives":[{"attributes":{"POSITION":0,"NORMAL":1},"material":0},{"attributes":{"POSITION":2,"NORMAL":3},"material":1},{"attributes":{"POSITION":4,"NORMAL":5},"material":2}]}],"materials":[{"name":"Case","pbrMetallicRoughness":{"baseColorFactor":[0.55,0.54,0.51,1],"metallicFactor":0.05,"roughnessFactor":0.55}},{"name":"Screen","pbrMetallicRoughness":{"baseColorFactor":[0.02,0.02,0.026,1],"metallicFactor":0.1,"roughnessFactor":0.3}},{"name":"Phosphor","pbrMetallicRoughness":{"baseColorFactor":[0.95,0.95,0.95,1],"metallicFactor":0,"roughnessFactor":0.9},"emissiveFactor":[1,1,1]}],"accessors":[{"bufferView":0,"componentType":5126,"count":8532,"type":"VEC3","min":[-0.6,-0.7028944229253978,-0.39554909934085863],"max":[0.6,0.8716215466816309,0.91411551206437]},{"bufferView":1,"componentType":5126,"count":8532,"type":"VEC3"},{"bufferView":2,"componentType":5126,"count":3384,"type":"VEC3","min":[-0.5293841995766062,-0.6318977964557816,0.4364134980887911],"max":[0.5293841995766062,0.6327010123512844,0.886328636474832]},{"bufferView":3,"componentType":5126,"count":3384,"type":"VEC3"},{"bufferView":4,"componentType":5126,"count":1152,"type":"VEC3","min":[-0.31,0.14402561606931574,0.6011557108307042],"max":[0.23000000000000004,0.5171655527332486,0.7827219155883862]},{"bufferView":5,"componentType":5126,"count":1152,"type":"VEC3"}],"bufferViews":[{"buffer":0,"byteOffset":0,"byteLength":102384,"target":34962},{"buffer":0,"byteOffset":102384,"byteLength":102384,"target":34962},{"buffer":0,"byteOffset":204768,"byteLength":40608,"target":34962},{"buffer":0,"byteOffset":245376,"byteLength":40608,"target":34962},{"buffer":0,"byteOffset":285984,"byteLength":13824,"target":34962},{"buffer":0,"byteOffset":299808,"byteLength":13824,"target":34962}],"buffers":[{"byteLength":313632,"uri":"data:application/octet-stream;base64,"}]}