<?xml version="1.0" standalone="no"?>
<!DOCTYPE svg PUBLIC "-//W3C//DTD SVG 20010904//EN"
 "http://www.w3.org/TR/2001/REC-SVG-20010904/DTD/svg10.dtd">
<svg version="1.0" xmlns="http://www.w3.org/2000/svg"
 width="1024.000000pt" height="1024.000000pt" viewBox="0 0 1024.000000 1024.000000"
 preserveAspectRatio="xMidYMid meet">
<metadata>
Created by potrace 1.14, written by Peter Selinger 2001-2017
</metadata>
<g transform="translate(0.000000,1024.000000) scale(0.100000,-0.100000)"
fill="#000000" stroke="none">
<path d="M4869 9168 c0 -2 -2 -10 -4 -18 -12 -55 -41 -156 -45 -160 -6 -6 -9
-18 -14 -58 -2 -15 -7 -35 -10 -44 -4 -9 -9 -22 -10 -30 -5 -25 -18 -73 -43
-158 -30 -104 -36 -130 -35 -152 0 -10 -3 -18 -8 -18 -4 0 -10 -15 -13 -32 -3
-18 -15 -69 -27 -113 -12 -44 -23 -84 -24 -90 -2 -5 -9 -30 -16 -55 -7 -25
-14 -52 -16 -60 -1 -8 -10 -42 -19 -75 -9 -33 -19 -69 -22 -80 -8 -39 -11 -50
-13 -50 -1 0 -3 -7 -5 -15 -2 -8 -16 -60 -30 -115 -15 -55 -28 -107 -30 -115
-2 -8 -4 -17 -6 -20 -1 -3 -3 -9 -4 -15 -2 -5 -4 -13 -5 -17 -1 -5 -3 -11 -5
-15 -1 -5 -5 -20 -9 -34 -4 -14 -9 -34 -11 -45 -2 -10 -4 -19 -5 -19 -2 0 -5
-13 -13 -51 -3 -11 -12 -44 -21 -72 -8 -29 -12 -52 -9 -52 3 0 0 -7 -7 -15 -7
-8 -9 -15 -6 -15 4 0 2 -8 -3 -19 -6 -10 -13 -31 -15 -47 -3 -16 -11 -45 -16
-64 -6 -19 -14 -48 -17 -65 -3 -16 -9 -38 -14 -48 -6 -9 -7 -22 -4 -27 3 -6 2
-10 -3 -10 -5 0 -9 -6 -10 -12 -3 -29 -10 -63 -11 -63 -2 0 -4 -7 -6 -15 -1
-8 -10 -43 -19 -76 -9 -34 -16 -66 -16 -71 0 -5 338 -9 813 -8 446 0 817 0
822 -2 16 -5 10 -3068 -5 -3068 -1 0 -3 -11 -4 -25 -4 -38 -37 -182 -49 -210
-5 -14 -11 -31 -13 -37 -11 -56 -106 -207 -169 -268 -34 -34 -105 -87 -105
-79 0 4 -6 1 -12 -7 -16 -20 -129 -69 -157 -69 -11 0 -21 -4 -21 -8 0 -7 -35
-13 -92 -15 -10 -1 -18 -4 -18 -7 0 -8 -252 -10 -265 -2 -5 3 -21 7 -35 8 -20
2 -72 12 -100 19 -54 13 -195 78 -218 102 -7 7 -18 13 -23 13 -13 0 -169 156
-169 170 0 6 -8 19 -17 30 -28 29 -103 183 -108 220 -1 8 -10 42 -20 75 -10
33 -19 74 -21 90 -1 17 -5 45 -9 64 -4 19 -7 72 -8 117 -1 48 -6 84 -12 84 -6
0 -6 3 0 8 14 9 13 135 0 144 -7 5 -6 8 1 8 11 0 14 132 3 140 -6 4 -2179 5
-2225 1 -11 -1 -11 -521 0 -626 3 -27 8 -72 11 -100 3 -27 8 -68 11 -90 4 -22
8 -53 9 -70 2 -16 4 -32 5 -35 3 -6 3 -5 15 -80 5 -30 8 -58 7 -62 -1 -5 3 -8
8 -8 5 0 9 -3 8 -7 -4 -13 25 -153 31 -153 4 0 8 -14 9 -31 1 -17 9 -43 17
-59 8 -15 11 -30 8 -33 -3 -4 -2 -12 4 -19 5 -7 16 -33 23 -58 7 -25 16 -49
19 -55 3 -5 6 -12 7 -15 0 -3 6 -18 12 -33 7 -16 12 -30 12 -31 0 -2 8 -21 17
-42 9 -22 17 -42 17 -46 1 -4 7 -13 13 -20 7 -6 13 -18 13 -25 0 -12 17 -46
96 -190 12 -22 35 -61 51 -85 15 -23 32 -51 38 -60 20 -33 99 -143 111 -156 7
-7 34 -39 60 -72 26 -33 51 -60 55 -60 5 0 9 -4 9 -8 0 -11 141 -152 152 -152
4 0 8 -7 8 -15 0 -8 4 -15 10 -15 5 0 31 -19 58 -43 86 -74 102 -87 112 -87 6
0 10 -3 10 -8 0 -4 18 -18 40 -32 22 -14 40 -28 40 -32 0 -5 5 -8 11 -8 6 0
25 -11 43 -25 18 -14 38 -25 44 -25 7 0 12 -4 12 -10 0 -5 7 -10 15 -10 8 0
15 -5 15 -11 0 -5 4 -8 9 -5 5 4 11 2 13 -3 4 -10 233 -131 249 -131 6 0 17
-7 25 -15 9 -8 24 -15 35 -15 10 0 19 -5 19 -11 0 -5 5 -7 11 -3 6 3 14 2 18
-4 4 -7 16 -13 26 -15 11 -2 38 -11 60 -21 22 -10 47 -19 55 -21 8 -2 16 -4
18 -5 1 -2 5 -3 10 -4 36 -10 99 -31 107 -37 6 -4 27 -10 48 -13 21 -3 47 -10
56 -16 10 -5 21 -6 25 -3 3 3 6 0 6 -7 0 -7 2 -11 6 -8 3 3 22 2 42 -3 20 -5
53 -12 72 -15 19 -3 39 -8 43 -11 5 -3 20 -7 35 -9 49 -7 77 -12 77 -15 0 -1
14 -3 30 -4 17 -2 30 -4 30 -5 0 -1 14 -3 30 -5 17 -1 30 -3 30 -5 0 -2 16 -4
105 -14 30 -3 73 -8 94 -11 22 -3 71 -8 110 -11 96 -8 666 -8 741 0 109 11
210 22 271 30 11 2 27 7 34 11 9 6 11 4 5 -5 -6 -9 -4 -11 6 -5 7 5 27 10 44
11 16 1 30 3 30 4 0 2 17 6 70 15 22 3 54 9 70 12 17 3 35 6 40 7 6 1 16 5 23
9 6 5 12 6 12 4 0 -3 48 9 108 25 59 15 116 31 126 33 33 8 199 65 233 81 17
8 34 14 37 14 3 0 40 16 82 35 41 19 80 35 85 35 5 0 9 5 9 11 0 5 3 8 8 6 4
-3 39 13 77 34 39 22 78 42 88 45 9 4 17 10 17 15 0 5 5 9 11 9 6 0 44 23 85
50 41 28 77 50 80 50 3 0 11 6 18 12 7 7 25 22 40 33 16 11 33 25 40 30 6 6
33 28 60 49 104 84 287 277 361 380 11 16 29 40 41 55 29 37 113 167 121 188
4 10 13 24 20 31 7 8 11 18 8 23 -4 5 -2 9 2 9 8 0 48 73 52 93 0 4 12 28 25
55 21 39 43 89 51 112 1 3 7 19 14 35 32 78 81 232 83 263 1 6 6 12 11 12 6 0
8 3 5 6 -4 3 -2 20 3 37 15 50 22 80 23 105 1 12 4 22 8 22 5 0 7 3 7 7 -1 5
0 10 1 13 1 3 3 19 5 35 2 17 6 46 10 65 3 19 8 46 10 60 2 14 6 45 10 70 11
74 15 102 21 170 3 36 7 88 10 115 3 28 7 1268 10 2758 l4 2707 -1685 0 c-927
0 -1685 -1 -1686 -2z"/>
</g>
</svg>
